<svg width="81" height="49" viewBox="0 0 81 49" fill="none" xmlns="http://www.w3.org/2000/svg">
<path d="M67.665 2.77815C75.0129 2.77815 80.2392 9.91903 78.0141 16.9047L75.2716 25.5979C72.7361 33.5667 65.2847 39 56.902 39H30.0461L31.0292 35.8953H47.5878C52.2966 35.8953 56.488 32.8423 57.8851 28.3404L62.4387 14.1104C63.6806 10.0743 60.6794 5.93462 56.4363 5.93462H53.6938L45.2075 32.7388H28.7524L37.2387 5.93462H33.6682C28.9594 5.93462 24.768 8.98761 23.3709 13.4895L17.2649 32.7388H0.758108L6.03615 16.232C8.57168 8.26317 15.9713 2.77815 24.3541 2.77815H67.665Z" fill="#FF3821"/>
</svg>
