<svg width="442" height="136" viewBox="0 0 442 136" fill="none" xmlns="http://www.w3.org/2000/svg">
<path d="M41.9675 40.1576V43.7666H4.50753V40.1576H20.999V30.7013H8.80172V11.2404H37.4906V30.7013H25.2932V40.1576H41.9675ZM13.0045 27.275H33.2421V14.7123H13.0045V27.275ZM77.7372 23.0265V26.4528H49.962V10.281H77.2347V13.7986H54.3475V23.0265H77.7372ZM44.8912 34.9498V31.4322H82.3511V34.9498H65.6312V48.7917H61.3827V34.9498H44.8912ZM98.7056 10.8749C105.17 10.8521 109.829 14.8493 109.852 20.6054C109.829 26.3614 105.17 30.3586 98.7056 30.3815C92.2643 30.3586 87.5361 26.3614 87.559 20.6054C87.5361 14.8493 92.2643 10.8521 98.7056 10.8749ZM85.5946 36.5487C93.0409 36.5487 103.365 36.4801 112.319 35.1782L112.639 38.3303C103.388 40.1119 93.4521 40.1576 86.1428 40.1576L85.5946 36.5487ZM91.8532 20.6054C91.8075 24.2371 94.7312 26.5898 98.7056 26.5898C102.68 26.5898 105.604 24.2371 105.604 20.6054C105.604 17.0192 102.68 14.6209 98.7056 14.6209C94.7312 14.6209 91.8075 17.0192 91.8532 20.6054ZM114.877 48.9744V7.9512H119.217V48.9744H114.877ZM155.855 10.4181C164.603 10.4409 170.976 14.7579 170.976 21.2906C170.976 27.4121 165.631 31.5007 158.002 32.1174V40.1576H174.676V43.7666H137.216V40.1576H153.708V32.1174C146.124 31.5007 140.757 27.4121 140.78 21.2906C140.757 14.7579 147.152 10.4409 155.855 10.4181ZM144.982 21.2906C144.982 25.8817 149.551 28.7369 155.855 28.7826C162.205 28.7369 166.75 25.8817 166.773 21.2906C166.75 16.8594 162.205 13.9357 155.855 13.9813C149.551 13.9357 144.982 16.8594 144.982 21.2906ZM211.542 7.9512V48.9744H207.202V7.9512H211.542ZM180.25 38.9242V11.7429H199.847V15.3518H184.635V35.2239C192.378 35.201 197.358 34.9726 203.137 33.9447L203.593 37.5537C197.472 38.6729 192.127 38.9013 183.63 38.9242H180.25ZM236.714 10.4181C245.462 10.4409 251.835 14.7579 251.835 21.2906C251.835 27.4121 246.49 31.5007 238.861 32.1174V40.1576H255.535V43.7666H218.075V40.1576H234.566V32.1174C226.983 31.5007 221.615 27.4121 221.638 21.2906C221.615 14.7579 228.011 10.4409 236.714 10.4181ZM225.841 21.2906C225.841 25.8817 230.409 28.7369 236.714 28.7826C243.063 28.7369 247.609 25.8817 247.632 21.2906C247.609 16.8594 243.063 13.9357 236.714 13.9813C230.409 13.9357 225.841 16.8594 225.841 21.2906Z" fill="#F5F2F5"/>
<path d="M117.393 54.8992C130.193 54.8992 139.298 67.3391 135.421 79.5085L130.644 94.6527C126.227 108.535 113.246 118 98.6427 118H51.858L53.5708 112.591H82.4168C90.6199 112.591 97.9216 107.273 100.355 99.4303L108.288 74.6408C110.452 67.6095 105.223 60.398 97.8314 60.398H93.0538L78.2702 107.093H49.6044L64.388 60.398H58.1681C49.965 60.398 42.6633 65.7165 40.2295 73.559L29.5925 107.093H0.836545L10.0312 78.3367C14.4483 64.4545 27.3389 54.8992 41.9422 54.8992H117.393ZM251.206 63.3728C252.919 66.0771 253.911 69.3223 253.911 72.7477C253.911 78.6972 252.378 84.3763 249.674 89.2441C248.142 92.1287 246.158 94.7429 243.905 96.9965C242.462 98.4388 240.93 99.7008 239.398 100.783C233.809 104.749 226.958 107.093 219.566 107.093H156.014C151.056 107.093 146.639 105.019 143.394 101.774C140.239 98.6191 138.256 94.202 138.256 89.2441C138.256 79.779 142.132 71.2153 148.262 64.9954C149.975 63.2826 151.958 61.7502 153.941 60.398C159.35 56.9725 165.75 54.8992 172.601 54.8992H236.152C241.2 54.8992 245.708 57.0627 248.953 60.398C249.854 61.2995 250.575 62.291 251.206 63.3728ZM219.386 72.7477C219.566 71.9364 219.566 71.1251 219.566 70.3138C219.566 64.8151 215.149 60.398 209.74 60.398H191.621C186.303 60.398 181.615 62.5615 178.19 65.9869C174.674 69.4124 172.601 74.19 172.601 79.4184C172.601 84.9172 177.018 89.2441 182.427 89.2441H200.546C205.864 89.2441 210.552 87.1708 213.977 83.7453C216.952 80.8607 218.845 76.9845 219.386 72.7477ZM363.961 63.3728C365.674 66.0771 366.665 69.3223 366.665 72.7477C366.665 78.6972 365.133 84.3763 362.429 89.2441C360.806 92.1287 358.913 94.7429 356.569 96.9965C355.217 98.4388 353.685 99.7008 352.062 100.783C346.473 104.749 339.712 107.093 332.32 107.093H251.642L264.713 65.8968H293.468L285.986 89.2441H313.3C318.528 89.2441 323.306 87.1708 326.732 83.7453C329.616 80.8607 331.599 76.9845 332.14 72.7477C332.23 71.9364 332.32 71.1251 332.32 70.3138C332.32 64.8151 327.903 60.398 322.495 60.398H272.194L273.997 54.8992H348.817C353.865 54.8992 358.462 57.0627 361.707 60.398C362.519 61.2995 363.33 62.291 363.961 63.3728ZM381.407 112.591H437.477L435.764 118.09H372.483C369.508 118.09 366.714 116.828 364.731 114.845C364.19 114.214 363.649 113.583 363.198 112.862L363.018 112.591C362.026 110.969 361.576 109.076 361.576 107.093C361.576 102.135 363.559 97.7176 366.714 94.4724C367.705 93.571 368.697 92.7597 369.779 92.0385C372.573 90.3258 375.818 89.2441 379.334 89.2441H392.766L401.87 60.398H383.391L385.103 54.8992H432.339L415.752 107.093H382.76C381.768 107.093 380.957 107.453 380.326 108.084C379.695 108.715 379.334 109.526 379.334 110.428C379.334 111.059 379.604 111.6 379.965 111.96C380.326 112.321 380.867 112.591 381.407 112.591Z" fill="#FF3821"/>
</svg>
