<svg width="254" height="49" viewBox="0 0 254 49" fill="none" xmlns="http://www.w3.org/2000/svg">
<path d="M67.665 2.77815C75.0129 2.77815 80.2392 9.91903 78.0141 16.9047L75.2716 25.5979C72.7361 33.5667 65.2847 39 56.902 39H30.0461L31.0292 35.8953H47.5878C52.2966 35.8953 56.488 32.8423 57.8851 28.3404L62.4387 14.1104C63.6806 10.0743 60.6794 5.93462 56.4363 5.93462H53.6938L45.2075 32.7388H28.7524L37.2387 5.93462H33.6682C28.9594 5.93462 24.768 8.98761 23.3709 13.4895L17.2649 32.7388H0.758108L6.03615 16.232C8.57168 8.26317 15.9713 2.77815 24.3541 2.77815H67.665ZM144.478 7.64223C145.462 9.19459 146.031 11.0574 146.031 13.0238C146.031 16.439 145.151 19.6989 143.599 22.4932C142.719 24.149 141.581 25.6497 140.287 26.9433C139.459 27.7712 138.579 28.4957 137.7 29.1166C134.492 31.3934 130.559 32.7388 126.316 32.7388H89.8352C86.9892 32.7388 84.4536 31.5486 82.5908 29.6858C80.7797 27.8747 79.6413 25.3392 79.6413 22.4932C79.6413 17.0599 81.8663 12.1441 85.385 8.57365C86.3682 7.59048 87.5066 6.71081 88.645 5.93462C91.7497 3.9683 95.4237 2.77815 99.3563 2.77815H135.837C138.735 2.77815 141.322 4.02004 143.185 5.93462C143.702 6.45208 144.116 7.02128 144.478 7.64223ZM126.212 13.0238C126.316 12.558 126.316 12.0923 126.316 11.6266C126.316 8.47015 123.78 5.93462 120.675 5.93462H110.275C107.222 5.93462 104.531 7.17652 102.565 9.14285C100.546 11.1092 99.3563 13.8517 99.3563 16.8529C99.3563 20.0094 101.892 22.4932 104.997 22.4932H115.397C118.45 22.4932 121.141 21.303 123.108 19.3367C124.815 17.6809 125.902 15.4558 126.212 13.0238ZM209.203 7.64223C210.186 9.19459 210.755 11.0574 210.755 13.0238C210.755 16.439 209.876 19.6989 208.323 22.4932C207.392 24.149 206.305 25.6497 204.96 26.9433C204.184 27.7712 203.304 28.4957 202.373 29.1166C199.165 31.3934 195.284 32.7388 191.04 32.7388H144.728L152.231 9.0911H168.738L164.443 22.4932H180.122C183.123 22.4932 185.866 21.303 187.832 19.3367C189.488 17.6809 190.626 15.4558 190.937 13.0238C190.989 12.558 191.04 12.0923 191.04 11.6266C191.04 8.47015 188.505 5.93462 185.4 5.93462H156.526L157.561 2.77815H200.51C203.408 2.77815 206.047 4.02004 207.909 5.93462C208.375 6.45208 208.841 7.02128 209.203 7.64223ZM219.218 35.8953H251.404L250.42 39.0517H214.095C212.388 39.0517 210.783 38.3273 209.645 37.1889C209.335 36.8267 209.024 36.4645 208.765 36.0505L208.662 35.8953C208.093 34.9639 207.834 33.8772 207.834 32.7388C207.834 29.8928 208.972 27.3573 210.783 25.4944C211.353 24.977 211.922 24.5113 212.543 24.0973C214.147 23.1141 216.01 22.4932 218.028 22.4932H225.738L230.964 5.93462H220.356L221.339 2.77815H248.454L238.933 32.7388H219.994C219.425 32.7388 218.959 32.9458 218.597 33.308C218.235 33.6702 218.028 34.1359 218.028 34.6534C218.028 35.0156 218.183 35.3261 218.39 35.5331C218.597 35.74 218.907 35.8953 219.218 35.8953Z" fill="#FF3821"/>
</svg>
