<svg width="1440" height="400" viewBox="0 0 1440 400" fill="none" xmlns="http://www.w3.org/2000/svg">
<rect width="1440" height="400" fill="#28282C"/>
<path d="M149.393 136.899C162.193 136.899 171.298 149.339 167.421 161.509L162.644 176.653C158.227 190.535 145.246 200 130.643 200H83.858L85.5708 194.591H114.417C122.62 194.591 129.922 189.273 132.355 181.43L140.288 156.641C142.452 149.61 137.223 142.398 129.831 142.398H125.054L110.27 189.093H81.6044L96.388 142.398H90.1681C81.965 142.398 74.6633 147.717 72.2295 155.559L61.5925 189.093H32.8365L42.0312 160.337C46.4483 146.454 59.3389 136.899 73.9422 136.899H149.393ZM283.206 145.373C284.919 148.077 285.911 151.322 285.911 154.748C285.911 160.697 284.378 166.376 281.674 171.244C280.142 174.129 278.158 176.743 275.905 178.996C274.462 180.439 272.93 181.701 271.398 182.783C265.809 186.749 258.958 189.093 251.566 189.093H188.014C183.056 189.093 178.639 187.019 175.394 183.774C172.239 180.619 170.256 176.202 170.256 171.244C170.256 161.779 174.132 153.215 180.262 146.995C181.975 145.283 183.958 143.75 185.941 142.398C191.35 138.973 197.75 136.899 204.601 136.899H268.152C273.2 136.899 277.708 139.063 280.953 142.398C281.854 143.299 282.575 144.291 283.206 145.373ZM251.386 154.748C251.566 153.936 251.566 153.125 251.566 152.314C251.566 146.815 247.149 142.398 241.74 142.398H223.621C218.303 142.398 213.615 144.561 210.19 147.987C206.674 151.412 204.601 156.19 204.601 161.418C204.601 166.917 209.018 171.244 214.427 171.244H232.546C237.864 171.244 242.552 169.171 245.977 165.745C248.952 162.861 250.845 158.985 251.386 154.748ZM395.961 145.373C397.674 148.077 398.665 151.322 398.665 154.748C398.665 160.697 397.133 166.376 394.429 171.244C392.806 174.129 390.913 176.743 388.569 178.996C387.217 180.439 385.685 181.701 384.062 182.783C378.473 186.749 371.712 189.093 364.32 189.093H283.642L296.713 147.897H325.468L317.986 171.244H345.3C350.528 171.244 355.306 169.171 358.732 165.745C361.616 162.861 363.599 158.985 364.14 154.748C364.23 153.936 364.32 153.125 364.32 152.314C364.32 146.815 359.903 142.398 354.495 142.398H304.194L305.997 136.899H380.817C385.865 136.899 390.462 139.063 393.707 142.398C394.519 143.299 395.33 144.291 395.961 145.373ZM413.407 194.591H469.477L467.764 200.09H404.483C401.508 200.09 398.714 198.828 396.731 196.845C396.19 196.214 395.649 195.583 395.198 194.862L395.018 194.591C394.026 192.969 393.576 191.076 393.576 189.093C393.576 184.135 395.559 179.718 398.714 176.472C399.705 175.571 400.697 174.76 401.779 174.039C404.573 172.326 407.818 171.244 411.334 171.244H424.766L433.87 142.398H415.391L417.103 136.899H464.339L447.752 189.093H414.76C413.768 189.093 412.957 189.453 412.326 190.084C411.695 190.715 411.334 191.526 411.334 192.428C411.334 193.059 411.604 193.6 411.965 193.96C412.326 194.321 412.867 194.591 413.407 194.591Z" fill="#FF3821" fill-opacity="0.1"/>
<path d="M169.393 154.899C182.193 154.899 191.298 167.339 187.421 179.509L182.644 194.653C178.227 208.535 165.246 218 150.643 218H103.858L105.571 212.591H134.417C142.62 212.591 149.922 207.273 152.355 199.43L160.288 174.641C162.452 167.61 157.223 160.398 149.831 160.398H145.054L130.27 207.093H101.604L116.388 160.398H110.168C101.965 160.398 94.6633 165.717 92.2295 173.559L81.5925 207.093H52.8365L62.0312 178.337C66.4483 164.454 79.3389 154.899 93.9422 154.899H169.393ZM303.206 163.373C304.919 166.077 305.911 169.322 305.911 172.748C305.911 178.697 304.378 184.376 301.674 189.244C300.142 192.129 298.158 194.743 295.905 196.996C294.462 198.439 292.93 199.701 291.398 200.783C285.809 204.749 278.958 207.093 271.566 207.093H208.014C203.056 207.093 198.639 205.019 195.394 201.774C192.239 198.619 190.256 194.202 190.256 189.244C190.256 179.779 194.132 171.215 200.262 164.995C201.975 163.283 203.958 161.75 205.941 160.398C211.35 156.973 217.75 154.899 224.601 154.899H288.152C293.2 154.899 297.708 157.063 300.953 160.398C301.854 161.299 302.575 162.291 303.206 163.373ZM271.386 172.748C271.566 171.936 271.566 171.125 271.566 170.314C271.566 164.815 267.149 160.398 261.74 160.398H243.621C238.303 160.398 233.615 162.561 230.19 165.987C226.674 169.412 224.601 174.19 224.601 179.418C224.601 184.917 229.018 189.244 234.427 189.244H252.546C257.864 189.244 262.552 187.171 265.977 183.745C268.952 180.861 270.845 176.985 271.386 172.748ZM415.961 163.373C417.674 166.077 418.665 169.322 418.665 172.748C418.665 178.697 417.133 184.376 414.429 189.244C412.806 192.129 410.913 194.743 408.569 196.996C407.217 198.439 405.685 199.701 404.062 200.783C398.473 204.749 391.712 207.093 384.32 207.093H303.642L316.713 165.897H345.468L337.986 189.244H365.3C370.528 189.244 375.306 187.171 378.732 183.745C381.616 180.861 383.599 176.985 384.14 172.748C384.23 171.936 384.32 171.125 384.32 170.314C384.32 164.815 379.903 160.398 374.495 160.398H324.194L325.997 154.899H400.817C405.865 154.899 410.462 157.063 413.707 160.398C414.519 161.299 415.33 162.291 415.961 163.373ZM433.407 212.591H489.477L487.764 218.09H424.483C421.508 218.09 418.714 216.828 416.731 214.845C416.19 214.214 415.649 213.583 415.198 212.862L415.018 212.591C414.026 210.969 413.576 209.076 413.576 207.093C413.576 202.135 415.559 197.718 418.714 194.472C419.705 193.571 420.697 192.76 421.779 192.039C424.573 190.326 427.818 189.244 431.334 189.244H444.766L453.87 160.398H435.391L437.103 154.899H484.339L467.752 207.093H434.76C433.768 207.093 432.957 207.453 432.326 208.084C431.695 208.715 431.334 209.526 431.334 210.428C431.334 211.059 431.604 211.6 431.965 211.96C432.326 212.321 432.867 212.591 433.407 212.591Z" fill="#FF3821" fill-opacity="0.2"/>
<path d="M189.393 172.899C202.193 172.899 211.298 185.339 207.421 197.509L202.644 212.653C198.227 226.535 185.246 236 170.643 236H123.858L125.571 230.591H154.417C162.62 230.591 169.922 225.273 172.355 217.43L180.288 192.641C182.452 185.61 177.223 178.398 169.831 178.398H165.054L150.27 225.093H121.604L136.388 178.398H130.168C121.965 178.398 114.663 183.717 112.229 191.559L101.592 225.093H72.8365L82.0312 196.337C86.4483 182.454 99.3389 172.899 113.942 172.899H189.393ZM323.206 181.373C324.919 184.077 325.911 187.322 325.911 190.748C325.911 196.697 324.378 202.376 321.674 207.244C320.142 210.129 318.158 212.743 315.905 214.996C314.462 216.439 312.93 217.701 311.398 218.783C305.809 222.749 298.958 225.093 291.566 225.093H228.014C223.056 225.093 218.639 223.019 215.394 219.774C212.239 216.619 210.256 212.202 210.256 207.244C210.256 197.779 214.132 189.215 220.262 182.995C221.975 181.283 223.958 179.75 225.941 178.398C231.35 174.973 237.75 172.899 244.601 172.899H308.152C313.2 172.899 317.708 175.063 320.953 178.398C321.854 179.299 322.575 180.291 323.206 181.373ZM291.386 190.748C291.566 189.936 291.566 189.125 291.566 188.314C291.566 182.815 287.149 178.398 281.74 178.398H263.621C258.303 178.398 253.615 180.561 250.19 183.987C246.674 187.412 244.601 192.19 244.601 197.418C244.601 202.917 249.018 207.244 254.427 207.244H272.546C277.864 207.244 282.552 205.171 285.977 201.745C288.952 198.861 290.845 194.985 291.386 190.748ZM435.961 181.373C437.674 184.077 438.665 187.322 438.665 190.748C438.665 196.697 437.133 202.376 434.429 207.244C432.806 210.129 430.913 212.743 428.569 214.996C427.217 216.439 425.685 217.701 424.062 218.783C418.473 222.749 411.712 225.093 404.32 225.093H323.642L336.713 183.897H365.468L357.986 207.244H385.3C390.528 207.244 395.306 205.171 398.732 201.745C401.616 198.861 403.599 194.985 404.14 190.748C404.23 189.936 404.32 189.125 404.32 188.314C404.32 182.815 399.903 178.398 394.495 178.398H344.194L345.997 172.899H420.817C425.865 172.899 430.462 175.063 433.707 178.398C434.519 179.299 435.33 180.291 435.961 181.373ZM453.407 230.591H509.477L507.764 236.09H444.483C441.508 236.09 438.714 234.828 436.731 232.845C436.19 232.214 435.649 231.583 435.198 230.862L435.018 230.591C434.026 228.969 433.576 227.076 433.576 225.093C433.576 220.135 435.559 215.718 438.714 212.472C439.705 211.571 440.697 210.76 441.779 210.039C444.573 208.326 447.818 207.244 451.334 207.244H464.766L473.87 178.398H455.391L457.103 172.899H504.339L487.752 225.093H454.76C453.768 225.093 452.957 225.453 452.326 226.084C451.695 226.715 451.334 227.526 451.334 228.428C451.334 229.059 451.604 229.6 451.965 229.96C452.326 230.321 452.867 230.591 453.407 230.591Z" fill="#FF3821" fill-opacity="0.3"/>
<path d="M209.393 190.899C222.193 190.899 231.298 203.339 227.421 215.509L222.644 230.653C218.227 244.535 205.246 254 190.643 254H143.858L145.571 248.591H174.417C182.62 248.591 189.922 243.273 192.355 235.43L200.288 210.641C202.452 203.61 197.223 196.398 189.831 196.398H185.054L170.27 243.093H141.604L156.388 196.398H150.168C141.965 196.398 134.663 201.717 132.229 209.559L121.592 243.093H92.8365L102.031 214.337C106.448 200.454 119.339 190.899 133.942 190.899H209.393ZM343.206 199.373C344.919 202.077 345.911 205.322 345.911 208.748C345.911 214.697 344.378 220.376 341.674 225.244C340.142 228.129 338.158 230.743 335.905 232.996C334.462 234.439 332.93 235.701 331.398 236.783C325.809 240.749 318.958 243.093 311.566 243.093H248.014C243.056 243.093 238.639 241.019 235.394 237.774C232.239 234.619 230.256 230.202 230.256 225.244C230.256 215.779 234.132 207.215 240.262 200.995C241.975 199.283 243.958 197.75 245.941 196.398C251.35 192.973 257.75 190.899 264.601 190.899H328.152C333.2 190.899 337.708 193.063 340.953 196.398C341.854 197.299 342.575 198.291 343.206 199.373ZM311.386 208.748C311.566 207.936 311.566 207.125 311.566 206.314C311.566 200.815 307.149 196.398 301.74 196.398H283.621C278.303 196.398 273.615 198.561 270.19 201.987C266.674 205.412 264.601 210.19 264.601 215.418C264.601 220.917 269.018 225.244 274.427 225.244H292.546C297.864 225.244 302.552 223.171 305.977 219.745C308.952 216.861 310.845 212.985 311.386 208.748ZM455.961 199.373C457.674 202.077 458.665 205.322 458.665 208.748C458.665 214.697 457.133 220.376 454.429 225.244C452.806 228.129 450.913 230.743 448.569 232.996C447.217 234.439 445.685 235.701 444.062 236.783C438.473 240.749 431.712 243.093 424.32 243.093H343.642L356.713 201.897H385.468L377.986 225.244H405.3C410.528 225.244 415.306 223.171 418.732 219.745C421.616 216.861 423.599 212.985 424.14 208.748C424.23 207.936 424.32 207.125 424.32 206.314C424.32 200.815 419.903 196.398 414.495 196.398H364.194L365.997 190.899H440.817C445.865 190.899 450.462 193.063 453.707 196.398C454.519 197.299 455.33 198.291 455.961 199.373ZM473.407 248.591H529.477L527.764 254.09H464.483C461.508 254.09 458.714 252.828 456.731 250.845C456.19 250.214 455.649 249.583 455.198 248.862L455.018 248.591C454.026 246.969 453.576 245.076 453.576 243.093C453.576 238.135 455.559 233.718 458.714 230.472C459.705 229.571 460.697 228.76 461.779 228.039C464.573 226.326 467.818 225.244 471.334 225.244H484.766L493.87 196.398H475.391L477.103 190.899H524.339L507.752 243.093H474.76C473.768 243.093 472.957 243.453 472.326 244.084C471.695 244.715 471.334 245.526 471.334 246.428C471.334 247.059 471.604 247.6 471.965 247.96C472.326 248.321 472.867 248.591 473.407 248.591Z" fill="#FF3821" fill-opacity="0.4"/>
<path d="M229.393 208.899C242.193 208.899 251.298 221.339 247.421 233.509L242.644 248.653C238.227 262.535 225.246 272 210.643 272H163.858L165.571 266.591H194.417C202.62 266.591 209.922 261.273 212.355 253.43L220.288 228.641C222.452 221.61 217.223 214.398 209.831 214.398H205.054L190.27 261.093H161.604L176.388 214.398H170.168C161.965 214.398 154.663 219.717 152.229 227.559L141.592 261.093H112.837L122.031 232.337C126.448 218.454 139.339 208.899 153.942 208.899H229.393ZM363.206 217.373C364.919 220.077 365.911 223.322 365.911 226.748C365.911 232.697 364.378 238.376 361.674 243.244C360.142 246.129 358.158 248.743 355.905 250.996C354.462 252.439 352.93 253.701 351.398 254.783C345.809 258.749 338.958 261.093 331.566 261.093H268.014C263.056 261.093 258.639 259.019 255.394 255.774C252.239 252.619 250.256 248.202 250.256 243.244C250.256 233.779 254.132 225.215 260.262 218.995C261.975 217.283 263.958 215.75 265.941 214.398C271.35 210.973 277.75 208.899 284.601 208.899H348.152C353.2 208.899 357.708 211.063 360.953 214.398C361.854 215.299 362.575 216.291 363.206 217.373ZM331.386 226.748C331.566 225.936 331.566 225.125 331.566 224.314C331.566 218.815 327.149 214.398 321.74 214.398H303.621C298.303 214.398 293.615 216.561 290.19 219.987C286.674 223.412 284.601 228.19 284.601 233.418C284.601 238.917 289.018 243.244 294.427 243.244H312.546C317.864 243.244 322.552 241.171 325.977 237.745C328.952 234.861 330.845 230.985 331.386 226.748ZM475.961 217.373C477.674 220.077 478.665 223.322 478.665 226.748C478.665 232.697 477.133 238.376 474.429 243.244C472.806 246.129 470.913 248.743 468.569 250.996C467.217 252.439 465.685 253.701 464.062 254.783C458.473 258.749 451.712 261.093 444.32 261.093H363.642L376.713 219.897H405.468L397.986 243.244H425.3C430.528 243.244 435.306 241.171 438.732 237.745C441.616 234.861 443.599 230.985 444.14 226.748C444.23 225.936 444.32 225.125 444.32 224.314C444.32 218.815 439.903 214.398 434.495 214.398H384.194L385.997 208.899H460.817C465.865 208.899 470.462 211.063 473.707 214.398C474.519 215.299 475.33 216.291 475.961 217.373ZM493.407 266.591H549.477L547.764 272.09H484.483C481.508 272.09 478.714 270.828 476.731 268.845C476.19 268.214 475.649 267.583 475.198 266.862L475.018 266.591C474.026 264.969 473.576 263.076 473.576 261.093C473.576 256.135 475.559 251.718 478.714 248.472C479.705 247.571 480.697 246.76 481.779 246.039C484.573 244.326 487.818 243.244 491.334 243.244H504.766L513.87 214.398H495.391L497.103 208.899H544.339L527.752 261.093H494.76C493.768 261.093 492.957 261.453 492.326 262.084C491.695 262.715 491.334 263.526 491.334 264.428C491.334 265.059 491.604 265.6 491.965 265.96C492.326 266.321 492.867 266.591 493.407 266.591Z" fill="#FF3821" fill-opacity="0.5"/>
<path d="M249.393 226.899C262.193 226.899 271.298 239.339 267.421 251.509L262.644 266.653C258.227 280.535 245.246 290 230.643 290H183.858L185.571 284.591H214.417C222.62 284.591 229.922 279.273 232.355 271.43L240.288 246.641C242.452 239.61 237.223 232.398 229.831 232.398H225.054L210.27 279.093H181.604L196.388 232.398H190.168C181.965 232.398 174.663 237.717 172.229 245.559L161.592 279.093H132.837L142.031 250.337C146.448 236.454 159.339 226.899 173.942 226.899H249.393ZM383.206 235.373C384.919 238.077 385.911 241.322 385.911 244.748C385.911 250.697 384.378 256.376 381.674 261.244C380.142 264.129 378.158 266.743 375.905 268.996C374.462 270.439 372.93 271.701 371.398 272.783C365.809 276.749 358.958 279.093 351.566 279.093H288.014C283.056 279.093 278.639 277.019 275.394 273.774C272.239 270.619 270.256 266.202 270.256 261.244C270.256 251.779 274.132 243.215 280.262 236.995C281.975 235.283 283.958 233.75 285.941 232.398C291.35 228.973 297.75 226.899 304.601 226.899H368.152C373.2 226.899 377.708 229.063 380.953 232.398C381.854 233.299 382.575 234.291 383.206 235.373ZM351.386 244.748C351.566 243.936 351.566 243.125 351.566 242.314C351.566 236.815 347.149 232.398 341.74 232.398H323.621C318.303 232.398 313.615 234.561 310.19 237.987C306.674 241.412 304.601 246.19 304.601 251.418C304.601 256.917 309.018 261.244 314.427 261.244H332.546C337.864 261.244 342.552 259.171 345.977 255.745C348.952 252.861 350.845 248.985 351.386 244.748ZM495.961 235.373C497.674 238.077 498.665 241.322 498.665 244.748C498.665 250.697 497.133 256.376 494.429 261.244C492.806 264.129 490.913 266.743 488.569 268.996C487.217 270.439 485.685 271.701 484.062 272.783C478.473 276.749 471.712 279.093 464.32 279.093H383.642L396.713 237.897H425.468L417.986 261.244H445.3C450.528 261.244 455.306 259.171 458.732 255.745C461.616 252.861 463.599 248.985 464.14 244.748C464.23 243.936 464.32 243.125 464.32 242.314C464.32 236.815 459.903 232.398 454.495 232.398H404.194L405.997 226.899H480.817C485.865 226.899 490.462 229.063 493.707 232.398C494.519 233.299 495.33 234.291 495.961 235.373ZM513.407 284.591H569.477L567.764 290.09H504.483C501.508 290.09 498.714 288.828 496.731 286.845C496.19 286.214 495.649 285.583 495.198 284.862L495.018 284.591C494.026 282.969 493.576 281.076 493.576 279.093C493.576 274.135 495.559 269.718 498.714 266.472C499.705 265.571 500.697 264.76 501.779 264.039C504.573 262.326 507.818 261.244 511.334 261.244H524.766L533.87 232.398H515.391L517.103 226.899H564.339L547.752 279.093H514.76C513.768 279.093 512.957 279.453 512.326 280.084C511.695 280.715 511.334 281.526 511.334 282.428C511.334 283.059 511.604 283.6 511.965 283.96C512.326 284.321 512.867 284.591 513.407 284.591Z" fill="#FF3821" fill-opacity="0.6"/>
<path d="M269.393 244.899C282.193 244.899 291.298 257.339 287.421 269.509L282.644 284.653C278.227 298.535 265.246 308 250.643 308H203.858L205.571 302.591H234.417C242.62 302.591 249.922 297.273 252.355 289.43L260.288 264.641C262.452 257.61 257.223 250.398 249.831 250.398H245.054L230.27 297.093H201.604L216.388 250.398H210.168C201.965 250.398 194.663 255.717 192.229 263.559L181.592 297.093H152.837L162.031 268.337C166.448 254.454 179.339 244.899 193.942 244.899H269.393ZM403.206 253.373C404.919 256.077 405.911 259.322 405.911 262.748C405.911 268.697 404.378 274.376 401.674 279.244C400.142 282.129 398.158 284.743 395.905 286.996C394.462 288.439 392.93 289.701 391.398 290.783C385.809 294.749 378.958 297.093 371.566 297.093H308.014C303.056 297.093 298.639 295.019 295.394 291.774C292.239 288.619 290.256 284.202 290.256 279.244C290.256 269.779 294.132 261.215 300.262 254.995C301.975 253.283 303.958 251.75 305.941 250.398C311.35 246.973 317.75 244.899 324.601 244.899H388.152C393.2 244.899 397.708 247.063 400.953 250.398C401.854 251.299 402.575 252.291 403.206 253.373ZM371.386 262.748C371.566 261.936 371.566 261.125 371.566 260.314C371.566 254.815 367.149 250.398 361.74 250.398H343.621C338.303 250.398 333.615 252.561 330.19 255.987C326.674 259.412 324.601 264.19 324.601 269.418C324.601 274.917 329.018 279.244 334.427 279.244H352.546C357.864 279.244 362.552 277.171 365.977 273.745C368.952 270.861 370.845 266.985 371.386 262.748ZM515.961 253.373C517.674 256.077 518.665 259.322 518.665 262.748C518.665 268.697 517.133 274.376 514.429 279.244C512.806 282.129 510.913 284.743 508.569 286.996C507.217 288.439 505.685 289.701 504.062 290.783C498.473 294.749 491.712 297.093 484.32 297.093H403.642L416.713 255.897H445.468L437.986 279.244H465.3C470.528 279.244 475.306 277.171 478.732 273.745C481.616 270.861 483.599 266.985 484.14 262.748C484.23 261.936 484.32 261.125 484.32 260.314C484.32 254.815 479.903 250.398 474.495 250.398H424.194L425.997 244.899H500.817C505.865 244.899 510.462 247.063 513.707 250.398C514.519 251.299 515.33 252.291 515.961 253.373ZM533.407 302.591H589.477L587.764 308.09H524.483C521.508 308.09 518.714 306.828 516.731 304.845C516.19 304.214 515.649 303.583 515.198 302.862L515.018 302.591C514.026 300.969 513.576 299.076 513.576 297.093C513.576 292.135 515.559 287.718 518.714 284.472C519.705 283.571 520.697 282.76 521.779 282.039C524.573 280.326 527.818 279.244 531.334 279.244H544.766L553.87 250.398H535.391L537.103 244.899H584.339L567.752 297.093H534.76C533.768 297.093 532.957 297.453 532.326 298.084C531.695 298.715 531.334 299.526 531.334 300.428C531.334 301.059 531.604 301.6 531.965 301.96C532.326 302.321 532.867 302.591 533.407 302.591Z" fill="#FF3821" fill-opacity="0.7"/>
<path d="M289.393 262.899C302.193 262.899 311.298 275.339 307.421 287.509L302.644 302.653C298.227 316.535 285.246 326 270.643 326H223.858L225.571 320.591H254.417C262.62 320.591 269.922 315.273 272.355 307.43L280.288 282.641C282.452 275.61 277.223 268.398 269.831 268.398H265.054L250.27 315.093H221.604L236.388 268.398H230.168C221.965 268.398 214.663 273.717 212.229 281.559L201.592 315.093H172.837L182.031 286.337C186.448 272.454 199.339 262.899 213.942 262.899H289.393ZM423.206 271.373C424.919 274.077 425.911 277.322 425.911 280.748C425.911 286.697 424.378 292.376 421.674 297.244C420.142 300.129 418.158 302.743 415.905 304.996C414.462 306.439 412.93 307.701 411.398 308.783C405.809 312.749 398.958 315.093 391.566 315.093H328.014C323.056 315.093 318.639 313.019 315.394 309.774C312.239 306.619 310.256 302.202 310.256 297.244C310.256 287.779 314.132 279.215 320.262 272.995C321.975 271.283 323.958 269.75 325.941 268.398C331.35 264.973 337.75 262.899 344.601 262.899H408.152C413.2 262.899 417.708 265.063 420.953 268.398C421.854 269.299 422.575 270.291 423.206 271.373ZM391.386 280.748C391.566 279.936 391.566 279.125 391.566 278.314C391.566 272.815 387.149 268.398 381.74 268.398H363.621C358.303 268.398 353.615 270.561 350.19 273.987C346.674 277.412 344.601 282.19 344.601 287.418C344.601 292.917 349.018 297.244 354.427 297.244H372.546C377.864 297.244 382.552 295.171 385.977 291.745C388.952 288.861 390.845 284.985 391.386 280.748ZM535.961 271.373C537.674 274.077 538.665 277.322 538.665 280.748C538.665 286.697 537.133 292.376 534.429 297.244C532.806 300.129 530.913 302.743 528.569 304.996C527.217 306.439 525.685 307.701 524.062 308.783C518.473 312.749 511.712 315.093 504.32 315.093H423.642L436.713 273.897H465.468L457.986 297.244H485.3C490.528 297.244 495.306 295.171 498.732 291.745C501.616 288.861 503.599 284.985 504.14 280.748C504.23 279.936 504.32 279.125 504.32 278.314C504.32 272.815 499.903 268.398 494.495 268.398H444.194L445.997 262.899H520.817C525.865 262.899 530.462 265.063 533.707 268.398C534.519 269.299 535.33 270.291 535.961 271.373ZM553.407 320.591H609.477L607.764 326.09H544.483C541.508 326.09 538.714 324.828 536.731 322.845C536.19 322.214 535.649 321.583 535.198 320.862L535.018 320.591C534.026 318.969 533.576 317.076 533.576 315.093C533.576 310.135 535.559 305.718 538.714 302.472C539.705 301.571 540.697 300.76 541.779 300.039C544.573 298.326 547.818 297.244 551.334 297.244H564.766L573.87 268.398H555.391L557.103 262.899H604.339L587.752 315.093H554.76C553.768 315.093 552.957 315.453 552.326 316.084C551.695 316.715 551.334 317.526 551.334 318.428C551.334 319.059 551.604 319.6 551.965 319.96C552.326 320.321 552.867 320.591 553.407 320.591Z" fill="#FF3821" fill-opacity="0.8"/>
<path d="M309.393 280.899C322.193 280.899 331.298 293.339 327.421 305.509L322.644 320.653C318.227 334.535 305.246 344 290.643 344H243.858L245.571 338.591H274.417C282.62 338.591 289.922 333.273 292.355 325.43L300.288 300.641C302.452 293.61 297.223 286.398 289.831 286.398H285.054L270.27 333.093H241.604L256.388 286.398H250.168C241.965 286.398 234.663 291.717 232.229 299.559L221.592 333.093H192.837L202.031 304.337C206.448 290.454 219.339 280.899 233.942 280.899H309.393ZM443.206 289.373C444.919 292.077 445.911 295.322 445.911 298.748C445.911 304.697 444.378 310.376 441.674 315.244C440.142 318.129 438.158 320.743 435.905 322.996C434.462 324.439 432.93 325.701 431.398 326.783C425.809 330.749 418.958 333.093 411.566 333.093H348.014C343.056 333.093 338.639 331.019 335.394 327.774C332.239 324.619 330.256 320.202 330.256 315.244C330.256 305.779 334.132 297.215 340.262 290.995C341.975 289.283 343.958 287.75 345.941 286.398C351.35 282.973 357.75 280.899 364.601 280.899H428.152C433.2 280.899 437.708 283.063 440.953 286.398C441.854 287.299 442.575 288.291 443.206 289.373ZM411.386 298.748C411.566 297.936 411.566 297.125 411.566 296.314C411.566 290.815 407.149 286.398 401.74 286.398H383.621C378.303 286.398 373.615 288.561 370.19 291.987C366.674 295.412 364.601 300.19 364.601 305.418C364.601 310.917 369.018 315.244 374.427 315.244H392.546C397.864 315.244 402.552 313.171 405.977 309.745C408.952 306.861 410.845 302.985 411.386 298.748ZM555.961 289.373C557.674 292.077 558.665 295.322 558.665 298.748C558.665 304.697 557.133 310.376 554.429 315.244C552.806 318.129 550.913 320.743 548.569 322.996C547.217 324.439 545.685 325.701 544.062 326.783C538.473 330.749 531.712 333.093 524.32 333.093H443.642L456.713 291.897H485.468L477.986 315.244H505.3C510.528 315.244 515.306 313.171 518.732 309.745C521.616 306.861 523.599 302.985 524.14 298.748C524.23 297.936 524.32 297.125 524.32 296.314C524.32 290.815 519.903 286.398 514.495 286.398H464.194L465.997 280.899H540.817C545.865 280.899 550.462 283.063 553.707 286.398C554.519 287.299 555.33 288.291 555.961 289.373ZM573.407 338.591H629.477L627.764 344.09H564.483C561.508 344.09 558.714 342.828 556.731 340.845C556.19 340.214 555.649 339.583 555.198 338.862L555.018 338.591C554.026 336.969 553.576 335.076 553.576 333.093C553.576 328.135 555.559 323.718 558.714 320.472C559.705 319.571 560.697 318.76 561.779 318.039C564.573 316.326 567.818 315.244 571.334 315.244H584.766L593.87 286.398H575.391L577.103 280.899H624.339L607.752 333.093H574.76C573.768 333.093 572.957 333.453 572.326 334.084C571.695 334.715 571.334 335.526 571.334 336.428C571.334 337.059 571.604 337.6 571.965 337.96C572.326 338.321 572.867 338.591 573.407 338.591Z" fill="#FF3821" fill-opacity="0.9"/>
<path d="M329.393 298.899C342.193 298.899 351.298 311.339 347.421 323.509L342.644 338.653C338.227 352.535 325.246 362 310.643 362H263.858L265.571 356.591H294.417C302.62 356.591 309.922 351.273 312.355 343.43L320.288 318.641C322.452 311.61 317.223 304.398 309.831 304.398H305.054L290.27 351.093H261.604L276.388 304.398H270.168C261.965 304.398 254.663 309.717 252.229 317.559L241.592 351.093H212.837L222.031 322.337C226.448 308.454 239.339 298.899 253.942 298.899H329.393ZM463.206 307.373C464.919 310.077 465.911 313.322 465.911 316.748C465.911 322.697 464.378 328.376 461.674 333.244C460.142 336.129 458.158 338.743 455.905 340.996C454.462 342.439 452.93 343.701 451.398 344.783C445.809 348.749 438.958 351.093 431.566 351.093H368.014C363.056 351.093 358.639 349.019 355.394 345.774C352.239 342.619 350.256 338.202 350.256 333.244C350.256 323.779 354.132 315.215 360.262 308.995C361.975 307.283 363.958 305.75 365.941 304.398C371.35 300.973 377.75 298.899 384.601 298.899H448.152C453.2 298.899 457.708 301.063 460.953 304.398C461.854 305.299 462.575 306.291 463.206 307.373ZM431.386 316.748C431.566 315.936 431.566 315.125 431.566 314.314C431.566 308.815 427.149 304.398 421.74 304.398H403.621C398.303 304.398 393.615 306.561 390.19 309.987C386.674 313.412 384.601 318.19 384.601 323.418C384.601 328.917 389.018 333.244 394.427 333.244H412.546C417.864 333.244 422.552 331.171 425.977 327.745C428.952 324.861 430.845 320.985 431.386 316.748ZM575.961 307.373C577.674 310.077 578.665 313.322 578.665 316.748C578.665 322.697 577.133 328.376 574.429 333.244C572.806 336.129 570.913 338.743 568.569 340.996C567.217 342.439 565.685 343.701 564.062 344.783C558.473 348.749 551.712 351.093 544.32 351.093H463.642L476.713 309.897H505.468L497.986 333.244H525.3C530.528 333.244 535.306 331.171 538.732 327.745C541.616 324.861 543.599 320.985 544.14 316.748C544.23 315.936 544.32 315.125 544.32 314.314C544.32 308.815 539.903 304.398 534.495 304.398H484.194L485.997 298.899H560.817C565.865 298.899 570.462 301.063 573.707 304.398C574.519 305.299 575.33 306.291 575.961 307.373ZM593.407 356.591H649.477L647.764 362.09H584.483C581.508 362.09 578.714 360.828 576.731 358.845C576.19 358.214 575.649 357.583 575.198 356.862L575.018 356.591C574.026 354.969 573.576 353.076 573.576 351.093C573.576 346.135 575.559 341.718 578.714 338.472C579.705 337.571 580.697 336.76 581.779 336.039C584.573 334.326 587.818 333.244 591.334 333.244H604.766L613.87 304.398H595.391L597.103 298.899H644.339L627.752 351.093H594.76C593.768 351.093 592.957 351.453 592.326 352.084C591.695 352.715 591.334 353.526 591.334 354.428C591.334 355.059 591.604 355.6 591.965 355.96C592.326 356.321 592.867 356.591 593.407 356.591Z" fill="#FFB258"/>
</svg>
