<svg width="70" height="70" viewBox="0 0 70 70" fill="none" xmlns="http://www.w3.org/2000/svg">
<rect width="70" height="70" fill="#D9D9D9"/>
<path d="M34.8495 20.0909V31H33.5711L27.6265 22.4347H27.52V31H26.199V20.0909H27.4774L33.4433 28.6776H33.5498V20.0909H34.8495ZM40.6463 31.1705C39.9077 31.1705 39.2596 30.9947 38.7021 30.6431C38.1481 30.2915 37.7148 29.7997 37.4023 29.1676C37.0934 28.5355 36.9389 27.7969 36.9389 26.9517C36.9389 26.0994 37.0934 25.3555 37.4023 24.7198C37.7148 24.0842 38.1481 23.5906 38.7021 23.239C39.2596 22.8874 39.9077 22.7116 40.6463 22.7116C41.3849 22.7116 42.0313 22.8874 42.5852 23.239C43.1428 23.5906 43.576 24.0842 43.8849 24.7198C44.1974 25.3555 44.3537 26.0994 44.3537 26.9517C44.3537 27.7969 44.1974 28.5355 43.8849 29.1676C43.576 29.7997 43.1428 30.2915 42.5852 30.6431C42.0313 30.9947 41.3849 31.1705 40.6463 31.1705ZM40.6463 30.0412C41.2074 30.0412 41.669 29.8974 42.0312 29.6097C42.3935 29.3221 42.6616 28.9439 42.8356 28.4751C43.0096 28.0064 43.0966 27.4986 43.0966 26.9517C43.0966 26.4048 43.0096 25.8952 42.8356 25.4229C42.6616 24.9506 42.3935 24.5689 42.0312 24.2777C41.669 23.9865 41.2074 23.8409 40.6463 23.8409C40.0852 23.8409 39.6236 23.9865 39.2614 24.2777C38.8991 24.5689 38.631 24.9506 38.457 25.4229C38.283 25.8952 38.196 26.4048 38.196 26.9517C38.196 27.4986 38.283 28.0064 38.457 28.4751C38.631 28.9439 38.8991 29.3221 39.2614 29.6097C39.6236 29.8974 40.0852 30.0412 40.6463 30.0412ZM15.977 38.0909V49H14.656V38.0909H15.977ZM18.4553 49V40.8182H19.6697V42.0966H19.7763C19.9467 41.6598 20.2219 41.3207 20.6019 41.0792C20.9819 40.8342 21.4382 40.7116 21.9709 40.7116C22.5107 40.7116 22.9599 40.8342 23.3185 41.0792C23.6808 41.3207 23.9631 41.6598 24.1655 42.0966H24.2507C24.4602 41.674 24.7745 41.3384 25.1935 41.0898C25.6126 40.8377 26.1151 40.7116 26.701 40.7116C27.4325 40.7116 28.0309 40.9407 28.4961 41.3988C28.9613 41.8533 29.1939 42.5618 29.1939 43.5241V49H27.9368V43.5241C27.9368 42.9205 27.7717 42.489 27.4414 42.2298C27.1112 41.9705 26.7223 41.8409 26.2749 41.8409C25.6996 41.8409 25.2539 42.0149 24.9379 42.3629C24.6218 42.7074 24.4638 43.1442 24.4638 43.6733V49H23.1854V43.3963C23.1854 42.9311 23.0344 42.5565 22.7326 42.2724C22.4308 41.9847 22.0419 41.8409 21.5661 41.8409C21.2393 41.8409 20.9339 41.9279 20.6499 42.1019C20.3693 42.2759 20.142 42.5174 19.968 42.8263C19.7976 43.1317 19.7124 43.4851 19.7124 43.8864V49H18.4553ZM33.9 49.1918C33.3816 49.1918 32.911 49.0941 32.4885 48.8988C32.0659 48.6999 31.7303 48.4141 31.4817 48.0412C31.2331 47.6648 31.1088 47.2102 31.1088 46.6776C31.1088 46.2088 31.2012 45.8288 31.3858 45.5376C31.5705 45.2429 31.8173 45.0121 32.1262 44.8452C32.4352 44.6783 32.7761 44.554 33.149 44.4723C33.5254 44.3871 33.9036 44.3196 34.2836 44.2699C34.7807 44.206 35.1838 44.158 35.4927 44.1261C35.8052 44.0906 36.0325 44.032 36.1745 43.9503C36.3201 43.8686 36.3929 43.7266 36.3929 43.5241V43.4815C36.3929 42.956 36.2491 42.5476 35.9615 42.2564C35.6774 41.9652 35.2459 41.8196 34.6671 41.8196C34.0669 41.8196 33.5964 41.951 33.2555 42.2138C32.9146 42.4766 32.6749 42.7571 32.5364 43.0554L31.3432 42.6293C31.5563 42.1321 31.8404 41.745 32.1955 41.468C32.5542 41.1875 32.9448 40.9922 33.3674 40.8821C33.7935 40.7685 34.2125 40.7116 34.6245 40.7116C34.8873 40.7116 35.1891 40.7436 35.53 40.8075C35.8745 40.8679 36.2065 40.994 36.5261 41.1857C36.8493 41.3775 37.1174 41.6669 37.3304 42.054C37.5435 42.4411 37.65 42.9595 37.65 43.6094V49H36.3929V47.892H36.329C36.2438 48.0696 36.1017 48.2596 35.9029 48.462C35.704 48.6644 35.4395 48.8366 35.1092 48.9787C34.7789 49.1207 34.3759 49.1918 33.9 49.1918ZM34.0918 48.0625C34.589 48.0625 35.008 47.9648 35.3489 47.7695C35.6934 47.5742 35.9526 47.3221 36.1266 47.0131C36.3042 46.7042 36.3929 46.3793 36.3929 46.0384V44.8878C36.3397 44.9517 36.2225 45.0103 36.0414 45.0636C35.8638 45.1133 35.6578 45.1577 35.4235 45.1967C35.1926 45.2322 34.9672 45.2642 34.747 45.2926C34.5304 45.3175 34.3546 45.3388 34.2196 45.3565C33.8929 45.3991 33.5875 45.4684 33.3034 45.5643C33.0229 45.6566 32.7956 45.7969 32.6216 45.9851C32.4512 46.1697 32.3659 46.4219 32.3659 46.7415C32.3659 47.1783 32.5275 47.5085 32.8507 47.7322C33.1774 47.9524 33.5911 48.0625 34.0918 48.0625ZM43.2471 52.2386C42.6398 52.2386 42.1178 52.1605 41.681 52.0043C41.2442 51.8516 40.8802 51.6491 40.589 51.397C40.3014 51.1484 40.0724 50.8821 39.9019 50.598L40.9033 49.8949C41.017 50.044 41.1608 50.2145 41.3348 50.4062C41.5088 50.6016 41.7467 50.7702 42.0486 50.9123C42.354 51.0579 42.7535 51.1307 43.2471 51.1307C43.9076 51.1307 44.4527 50.9709 44.8824 50.6513C45.3121 50.3317 45.5269 49.831 45.5269 49.1491V47.4872H45.4204C45.328 47.6364 45.1966 47.821 45.0262 48.0412C44.8593 48.2578 44.6178 48.4513 44.3018 48.6218C43.9893 48.7887 43.5667 48.8722 43.034 48.8722C42.3735 48.8722 41.7805 48.7159 41.2549 48.4034C40.7329 48.0909 40.3192 47.6364 40.0138 47.0398C39.7119 46.4432 39.561 45.7187 39.561 44.8665C39.561 44.0284 39.7084 43.2987 40.0031 42.6772C40.2979 42.0522 40.708 41.5692 41.2336 41.2283C41.7591 40.8839 42.3664 40.7116 43.0553 40.7116C43.588 40.7116 44.0106 40.8004 44.3231 40.978C44.6391 41.152 44.8806 41.3509 45.0475 41.5746C45.218 41.7947 45.3493 41.9759 45.4417 42.1179H45.5695V40.8182H46.784V49.2344C46.784 49.9375 46.6242 50.5092 46.3046 50.9496C45.9885 51.3935 45.5624 51.7184 45.0262 51.9244C44.4935 52.1339 43.9005 52.2386 43.2471 52.2386ZM43.2045 47.7429C43.7087 47.7429 44.1349 47.6275 44.4829 47.3967C44.8309 47.1658 45.0954 46.8338 45.2765 46.4006C45.4577 45.9673 45.5482 45.4489 45.5482 44.8452C45.5482 44.2557 45.4594 43.7354 45.2819 43.2844C45.1043 42.8335 44.8415 42.4801 44.4935 42.2244C44.1455 41.9687 43.7158 41.8409 43.2045 41.8409C42.6718 41.8409 42.2279 41.9759 41.8728 42.2457C41.5212 42.5156 41.2567 42.8778 41.0791 43.3324C40.9051 43.7869 40.8181 44.2912 40.8181 44.8452C40.8181 45.4134 40.9069 45.9158 41.0844 46.3526C41.2655 46.7859 41.5319 47.1268 41.8834 47.3754C42.2385 47.6204 42.6789 47.7429 43.2045 47.7429ZM52.5155 49.1705C51.7272 49.1705 51.0471 48.9964 50.4754 48.6484C49.9072 48.2969 49.4687 47.8068 49.1597 47.1783C48.8543 46.5462 48.7016 45.8111 48.7016 44.973C48.7016 44.1349 48.8543 43.3963 49.1597 42.7571C49.4687 42.1143 49.8983 41.6136 50.4488 41.255C51.0028 40.8928 51.6491 40.7116 52.3877 40.7116C52.8138 40.7116 53.2346 40.7827 53.6501 40.9247C54.0656 41.0668 54.4438 41.2976 54.7847 41.6172C55.1256 41.9332 55.3973 42.3523 55.5997 42.8743C55.8021 43.3963 55.9033 44.0391 55.9033 44.8026V45.3352H49.5965V44.2486H54.6249C54.6249 43.7869 54.5326 43.375 54.3479 43.0128C54.1668 42.6506 53.9076 42.3647 53.5702 42.1552C53.2364 41.9457 52.8422 41.8409 52.3877 41.8409C51.887 41.8409 51.4537 41.9652 51.088 42.2138C50.7258 42.4588 50.447 42.7784 50.2517 43.1726C50.0564 43.5668 49.9587 43.9893 49.9587 44.4403V45.1648C49.9587 45.7827 50.0653 46.3065 50.2783 46.7362C50.4949 47.1623 50.795 47.4872 51.1785 47.7109C51.5621 47.9311 52.0077 48.0412 52.5155 48.0412C52.8458 48.0412 53.1441 47.995 53.4104 47.9027C53.6803 47.8068 53.9129 47.6648 54.1082 47.4766C54.3035 47.2848 54.4545 47.0469 54.561 46.7628L55.7755 47.1037C55.6476 47.5156 55.4328 47.8778 55.1309 48.1903C54.8291 48.4993 54.4562 48.7408 54.0123 48.9148C53.5684 49.0852 53.0695 49.1705 52.5155 49.1705Z" fill="white"/>
</svg>
