<svg width="200" height="200" viewBox="0 0 200 200" fill="none" xmlns="http://www.w3.org/2000/svg">
<circle cx="100" cy="100" r="100" fill="#F5F2F5"/>
<path d="M100 8C49.216 8 8 49.216 8 100C8 150.784 49.216 192 100 192C150.784 192 192 150.784 192 100C192 49.216 150.784 8 100 8ZM100 35.6C115.272 35.6 127.6 47.928 127.6 63.2C127.6 78.472 115.272 90.8 100 90.8C84.728 90.8 72.4 78.472 72.4 63.2C72.4 47.928 84.728 35.6 100 35.6ZM100 166.24C77 166.24 56.668 154.464 44.8 136.616C45.076 118.308 81.6 108.28 100 108.28C118.308 108.28 154.924 118.308 155.2 136.616C143.332 154.464 123 166.24 100 166.24Z" fill="#D9D9D9"/>
</svg>
